<mxfile host="65bd71144e">
	<diagram id="riuGrL9qIe3FVCmZGOfn" name="第 1 页">
		<mxGraphModel
			dx="1015"
			dy="639"
			grid="1"
			gridSize="10"
			guides="1"
			tooltips="1"
			connect="1"
			arrows="1"
			fold="1"
			page="1"
			pageScale="1"
			pageWidth="827"
			pageHeight="1169"
			math="0"
			shadow="0"
		>
			<root>
				<mxCell id="0" />
				<mxCell id="1" parent="0" />
				<mxCell id="22" value="" style="edgeStyle=none;html=1;" parent="1" source="3" target="21" edge="1">
					<mxGeometry relative="1" as="geometry" />
				</mxCell>
				<mxCell
					id="3"
					value="/src/core/plugin：&lt;br&gt;独立的vite开发插件"
					style="rounded=0;whiteSpace=wrap;html=1;fillColor=#1ba1e2;fontColor=#ffffff;strokeColor=#006EAF;"
					parent="1"
					vertex="1"
				>
					<mxGeometry x="340" y="520" width="120" height="60" as="geometry" />
				</mxCell>
				<mxCell
					id="6"
					style="edgeStyle=none;html=1;exitX=0.5;exitY=1;exitDx=0;exitDy=0;entryX=0.5;entryY=0;entryDx=0;entryDy=0;"
					parent="1"
					source="5"
					target="8"
					edge="1"
				>
					<mxGeometry relative="1" as="geometry">
						<Array as="points" />
					</mxGeometry>
				</mxCell>
				<mxCell
					id="15"
					style="edgeStyle=none;html=1;exitX=0.5;exitY=1;exitDx=0;exitDy=0;entryX=0.5;entryY=0;entryDx=0;entryDy=0;"
					parent="1"
					source="24"
					target="14"
					edge="1"
				>
					<mxGeometry relative="1" as="geometry" />
				</mxCell>
				<mxCell id="25" value="" style="edgeStyle=none;html=1;" parent="1" source="5" target="24" edge="1">
					<mxGeometry relative="1" as="geometry" />
				</mxCell>
				<mxCell id="32" value="" style="edgeStyle=none;html=1;" edge="1" parent="1" source="5" target="31">
					<mxGeometry relative="1" as="geometry" />
				</mxCell>
				<mxCell
					id="5"
					value="/src/core/web：&lt;br&gt;系统管理模块"
					style="rounded=1;whiteSpace=wrap;html=1;fillColor=#1ba1e2;fontColor=#ffffff;strokeColor=#006EAF;"
					parent="1"
					vertex="1"
				>
					<mxGeometry x="340" y="130" width="120" height="60" as="geometry" />
				</mxCell>
				<mxCell
					id="7"
					style="edgeStyle=none;html=1;exitX=0.5;exitY=0;exitDx=0;exitDy=0;entryX=0.5;entryY=1;entryDx=0;entryDy=0;"
					parent="1"
					source="2"
					target="8"
					edge="1"
				>
					<mxGeometry relative="1" as="geometry" />
				</mxCell>
				<mxCell
					id="2"
					value="/src！/src/core：&lt;br&gt;用户项目模块"
					style="rounded=0;whiteSpace=wrap;html=1;fillColor=#1ba1e2;fontColor=#ffffff;strokeColor=#006EAF;"
					parent="1"
					vertex="1"
				>
					<mxGeometry x="340" y="330" width="120" height="60" as="geometry" />
				</mxCell>
				<mxCell
					id="8"
					value="强引用&lt;br&gt;耦合"
					style="rhombus;whiteSpace=wrap;html=1;"
					parent="1"
					vertex="1"
				>
					<mxGeometry x="360" y="220" width="80" height="80" as="geometry" />
				</mxCell>
				<mxCell
					id="11"
					value="框架设计师管理和维护"
					style="shape=callout;whiteSpace=wrap;html=1;perimeter=calloutPerimeter;fillColor=#ffcd28;gradientColor=#ffa500;strokeColor=#d79b00;position2=0.4;"
					parent="1"
					vertex="1"
				>
					<mxGeometry x="360" y="70" width="146" height="60" as="geometry" />
				</mxCell>
				<mxCell
					id="12"
					value="项目开发人员管理和编写代码"
					style="shape=callout;whiteSpace=wrap;html=1;perimeter=calloutPerimeter;fillColor=#ffcd28;gradientColor=#ffa500;strokeColor=#d79b00;position2=0;"
					parent="1"
					vertex="1"
				>
					<mxGeometry x="450" y="260" width="130" height="70" as="geometry" />
				</mxCell>
				<mxCell
					id="23"
					style="edgeStyle=none;html=1;exitX=0.5;exitY=1;exitDx=0;exitDy=0;entryX=0.5;entryY=0;entryDx=0;entryDy=0;"
					parent="1"
					source="14"
					target="21"
					edge="1"
				>
					<mxGeometry relative="1" as="geometry" />
				</mxCell>
				<mxCell id="14" value="端口调用服务" style="rhombus;whiteSpace=wrap;html=1;" parent="1" vertex="1">
					<mxGeometry x="639" y="320" width="82" height="80" as="geometry" />
				</mxCell>
				<mxCell
					id="17"
					style="edgeStyle=none;html=1;exitX=0.5;exitY=0;exitDx=0;exitDy=0;entryX=0;entryY=0.5;entryDx=0;entryDy=0;"
					parent="1"
					source="16"
					target="5"
					edge="1"
				>
					<mxGeometry relative="1" as="geometry" />
				</mxCell>
				<mxCell
					id="18"
					style="edgeStyle=none;html=1;exitX=0;exitY=0.5;exitDx=0;exitDy=0;entryX=0;entryY=0.5;entryDx=0;entryDy=0;"
					parent="1"
					source="16"
					target="2"
					edge="1"
				>
					<mxGeometry relative="1" as="geometry" />
				</mxCell>
				<mxCell
					id="19"
					style="edgeStyle=none;html=1;exitX=0.5;exitY=1;exitDx=0;exitDy=0;entryX=0;entryY=0.5;entryDx=0;entryDy=0;"
					parent="1"
					source="16"
					target="3"
					edge="1"
				>
					<mxGeometry relative="1" as="geometry" />
				</mxCell>
				<mxCell
					id="16"
					value="vite vue devServer&lt;br&gt;build tools&lt;br&gt;eslint&lt;br&gt;prettierrc"
					style="rounded=0;whiteSpace=wrap;html=1;fillColor=#fa6800;fontColor=#000000;strokeColor=#C73500;"
					parent="1"
					vertex="1"
				>
					<mxGeometry x="120" y="330" width="120" height="60" as="geometry" />
				</mxCell>
				<mxCell
					id="29"
					style="edgeStyle=none;html=1;exitX=0;exitY=0;exitDx=0;exitDy=0;entryX=1;entryY=0.5;entryDx=0;entryDy=0;"
					edge="1"
					parent="1"
					source="21"
					target="28"
				>
					<mxGeometry relative="1" as="geometry" />
				</mxCell>
				<mxCell
					id="21"
					value="vite-plugin-vnesting-server-middlewares"
					style="whiteSpace=wrap;html=1;rounded=0;"
					parent="1"
					vertex="1"
				>
					<mxGeometry x="620" y="520" width="120" height="60" as="geometry" />
				</mxCell>
				<mxCell
					id="24"
					value="devView：&lt;br&gt;开发运行时页面&lt;br&gt;打包时丢弃"
					style="whiteSpace=wrap;html=1;rounded=1;"
					parent="1"
					vertex="1"
				>
					<mxGeometry x="620" y="130" width="120" height="60" as="geometry" />
				</mxCell>
				<mxCell
					id="26"
					value="插件维护人员开发与维护"
					style="shape=callout;whiteSpace=wrap;html=1;perimeter=calloutPerimeter;fillColor=#ffcd28;gradientColor=#ffa500;strokeColor=#d79b00;"
					parent="1"
					vertex="1"
				>
					<mxGeometry x="380" y="460" width="120" height="60" as="geometry" />
				</mxCell>
				<mxCell
					id="30"
					style="edgeStyle=none;html=1;exitX=0;exitY=0.5;exitDx=0;exitDy=0;entryX=1;entryY=0.5;entryDx=0;entryDy=0;"
					edge="1"
					parent="1"
					source="28"
					target="2"
				>
					<mxGeometry relative="1" as="geometry" />
				</mxCell>
				<mxCell
					id="28"
					value="管理项目&lt;br&gt;添加页面&lt;br&gt;等"
					style="rhombus;whiteSpace=wrap;html=1;"
					vertex="1"
					parent="1"
				>
					<mxGeometry x="540" y="320" width="80" height="80" as="geometry" />
				</mxCell>
				<mxCell
					id="31"
					value="系统管理页面&lt;br&gt;无服务打包时丢弃"
					style="whiteSpace=wrap;html=1;fillColor=none;rounded=1;"
					vertex="1"
					parent="1"
				>
					<mxGeometry x="620" y="60" width="120" height="60" as="geometry" />
				</mxCell>
			</root>
		</mxGraphModel>
	</diagram>
</mxfile>;
